<svg xmlns="http://www.w3.org/2000/svg" width="240" height="240" viewBox="0 0 240 240" role="img" aria-labelledby="title desc">
  <title id="title">SafeFS logo</title>
  <desc id="desc">A shield containing a file and rollback arrow.</desc>
  <defs>
    <linearGradient id="shield" x1="40" x2="200" y1="28" y2="212" gradientUnits="userSpaceOnUse">
      <stop offset="0" stop-color="#0f766e"/>
      <stop offset="0.55" stop-color="#155e75"/>
      <stop offset="1" stop-color="#1f2937"/>
    </linearGradient>
    <linearGradient id="paper" x1="78" x2="162" y1="64" y2="176" gradientUnits="userSpaceOnUse">
      <stop offset="0" stop-color="#ffffff"/>
      <stop offset="1" stop-color="#dbeafe"/>
    </linearGradient>
  </defs>
  <rect width="240" height="240" rx="48" fill="#f8fafc"/>
  <path d="M120 24 190 52v62c0 48-27 88-70 104-43-16-70-56-70-104V52l70-28Z" fill="url(#shield)"/>
  <path d="M86 62h55l27 27v85a10 10 0 0 1-10 10H86a10 10 0 0 1-10-10V72a10 10 0 0 1 10-10Z" fill="url(#paper)"/>
  <path d="M140 63v28h28" fill="none" stroke="#94a3b8" stroke-width="8" stroke-linejoin="round"/>
  <path d="M152 132a34 34 0 1 1-10-24" fill="none" stroke="#0f766e" stroke-width="12" stroke-linecap="round"/>
  <path d="M142 92v27h-27" fill="none" stroke="#0f766e" stroke-width="12" stroke-linecap="round" stroke-linejoin="round"/>
  <path d="M96 154h48" stroke="#334155" stroke-width="10" stroke-linecap="round"/>
  <path d="M96 130h26" stroke="#334155" stroke-width="10" stroke-linecap="round"/>
</svg>
